{
  "asset": {
    "generator": "Khronos glTF Blender I/O v4.1.62",
    "version": "2.0"
  },
  "scene": 0,
  "scenes": [
    {
      "name": "Scene",
      "nodes": [
        0
      ]
    }
  ],
  "nodes": [
    {
      "mesh": 0,
      "name": "wooden_axe"
    }
  ],
  "materials": [
    {
      "doubleSided": true,
      "name": "wooden_axe",
      "normalTexture": {
        "index": 0
      },
      "pbrMetallicRoughness": {
        "baseColorTexture": {
          "index": 1
        },
        "metallicRoughnessTexture": {
          "index": 2
        }
      }
    }
  ],
  "meshes": [
    {
      "name": "Plane.008",
      "primitives": [
        {
          "attributes": {
            "POSITION": 0,
            "NORMAL": 1,
            "TEXCOORD_0": 2
          },
          "indices": 3,
          "material": 0
        }
      ]
    }
  ],
  "textures": [
    {
      "sampler": 0,
      "source": 0
    },
    {
      "sampler": 0,
      "source": 1
    },
    {
      "sampler": 0,
      "source": 2
    }
  ],
  "images": [
    {
      "mimeType": "image/jpeg",
      "name": "wooden_axe_nor_gl",
      "uri": "textures/wooden_axe_nor_gl_2k.jpg"
    },
    {
      "mimeType": "image/jpeg",
      "name": "wooden_axe_diff",
      "uri": "textures/wooden_axe_diff_2k.jpg"
    },
    {
      "mimeType": "image/jpeg",
      "name": "wooden_axe_metal-wooden_axe_rough",
      "uri": "textures/wooden_axe_arm_2k.jpg"
    }
  ],
  "accessors": [
    {
      "bufferView": 0,
      "componentType": 5126,
      "count": 2225,
      "max": [
        0.023332679644227028,
        0.41172197461128235,
        0.1784364879131317
      ],
      "min": [
        -0.02383228950202465,
        -0.21861277520656586,
        -0.035909056663513184
      ],
      "type": "VEC3"
    },
    {
      "bufferView": 1,
      "componentType": 5126,
      "count": 2225,
      "type": "VEC3"
    },
    {
      "bufferView": 2,
      "componentType": 5126,
      "count": 2225,
      "type": "VEC2"
    },
    {
      "bufferView": 3,
      "componentType": 5123,
      "count": 10044,
      "type": "SCALAR"
    }
  ],
  "bufferViews": [
    {
      "buffer": 0,
      "byteLength": 26700,
      "byteOffset": 0,
      "target": 34962
    },
    {
      "buffer": 0,
      "byteLength": 26700,
      "byteOffset": 26700,
      "target": 34962
    },
    {
      "buffer": 0,
      "byteLength": 17800,
      "byteOffset": 53400,
      "target": 34962
    },
    {
      "buffer": 0,
      "byteLength": 20088,
      "byteOffset": 71200,
      "target": 34963
    }
  ],
  "samplers": [
    {
      "magFilter": 9729,
      "minFilter": 9987
    }
  ],
  "buffers": [
    {
      "byteLength": 91288,
      "uri": "wooden_axe.bin"
    }
  ]
}